<?xml version="1.0" encoding="utf-8"?>
<!-- Generator: Adobe Illustrator 14.0.0, SVG Export Plug-In . SVG Version: 6.00 Build 43363)  -->
<!DOCTYPE svg PUBLIC "-//W3C//DTD SVG 1.1//EN" "http://www.w3.org/Graphics/SVG/1.1/DTD/svg11.dtd">
<svg version="1.1" xmlns="http://www.w3.org/2000/svg" xmlns:xlink="http://www.w3.org/1999/xlink" x="0px" y="0px" width="500px"
	 height="500px" viewBox="0 0 500 500" enable-background="new 0 0 500 500" xml:space="preserve">
<g id="Layer_2">
	<g opacity="0.5">
		<g>
			
				k_arms
			<g>
				<g>
					
					<polygon fill="#FFFFFF" points="110.201,66.971 113.029,69.799 132.828,50 113.029,30.201 110.201,33.029 127.172,50 					"/>
				</g>
			</g>
		</g>
	</g>
</g>
<g id="Layer_5">
	<g>
		<g>
			
				k_arms
			<g>
				<g>
					
					<polygon fill="#FFFFFF" points="110.201,166.971 113.029,169.799 132.828,150 113.029,130.201 110.201,133.029 127.172,150 
											"/>
				</g>
			</g>
		</g>
	</g>
</g>
<g id="Layer_3">
	<g opacity="0.5">
		<g>
			
				k_arms
			<g>
				<g>
					
					<polygon fill="#FFFFFF" points="49.799,66.971 46.971,69.799 27.172,50 46.971,30.201 49.799,33.029 32.828,50 					"/>
				</g>
			</g>
		</g>
	</g>
</g>
<g id="Layer_4">
	<g>
		<g>
			
				k_arms
			<g>
				<g>
					
					<polygon fill="#FFFFFF" points="49.799,166.971 46.971,169.799 27.172,150 46.971,130.201 49.799,133.029 32.828,150 					"/>
				</g>
			</g>
		</g>
	</g>
</g>
<g id="Layer_6">
	<g opacity="0.2">
		<g>
			
				k_arms
			<g>
				<g>
					
					<polygon fill="#FFFFFF" points="49.799,266.971 46.971,269.799 27.172,250 46.971,230.201 49.799,233.029 32.828,250 					"/>
				</g>
			</g>
		</g>
	</g>
</g>
<g id="Layer_7">
	<g opacity="0.2">
		<g>
			
				k_arms
			<g>
				<g>
					
					<polygon fill="#FFFFFF" points="110.201,266.971 113.029,269.799 132.828,250 113.029,230.201 110.201,233.029 127.172,250 
											"/>
				</g>
			</g>
		</g>
	</g>
</g>
<g id="Layer_8">
	<g opacity="0.8">
		<g>
			<g>
				
					k_arms
				<g>
					<g>
						
						<polygon fill="#FFFFFF" points="187.718,15.697 186.304,14.283 181,19.586 175.697,14.282 174.283,15.696 179.586,21 
							174.283,26.304 175.697,27.718 181,22.414 186.304,27.718 187.718,26.304 182.414,21 						"/>
					</g>
				</g>
			</g>
		</g>
	</g>
	<g>
		<g>
			<g>
				
					k_arms
				<g>
					<g>
						
						<polygon fill="#FFFFFF" points="229.718,15.697 228.304,14.283 223,19.586 217.697,14.282 216.283,15.696 221.586,21 
							216.283,26.304 217.697,27.718 223,22.414 228.304,27.718 229.718,26.304 224.414,21 						"/>
					</g>
				</g>
			</g>
		</g>
	</g>
</g>
<g id="Layer_10">
	<g opacity="0.5">
		<g>
			
				k_arms
			<g>
				<g>
					
					<polygon fill="#FFFFFF" points="19.316,329.998 33.636,344.316 31.161,346.792 14.367,329.998 31.161,313.204 33.636,315.68 
						19.317,329.998 					"/>
				</g>
			</g>
		</g>
	</g>
</g>
<g id="Layer_9">
	<g opacity="0.5">
		<g>
			
				k_arms
			<g>
				<g>
					
					<polygon fill="#FFFFFF" points="76.684,329.998 62.364,344.316 64.839,346.792 81.633,329.998 64.839,313.204 62.364,315.68 
						76.683,329.998 					"/>
				</g>
			</g>
		</g>
	</g>
</g>
<g id="Layer_12">
	<g>
		<g>
			
				k_arms
			<g>
				<g>
					
					<polygon fill="#FFFFFF" points="19.316,389.998 33.636,404.316 31.161,406.792 14.367,389.998 31.161,373.204 33.636,375.68 
						19.317,389.998 					"/>
				</g>
			</g>
		</g>
	</g>
</g>
<g id="Layer_11">
	<g>
		<g>
			
				k_arms
			<g>
				<g>
					
					<polygon fill="#FFFFFF" points="76.684,389.998 62.364,404.316 64.839,406.792 81.633,389.998 64.839,373.204 62.364,375.68 
						76.683,389.998 					"/>
				</g>
			</g>
		</g>
	</g>
</g>
<g id="Layer_14">
	<g opacity="0.2">
		<g>
			
				k_arms
			<g>
				<g>
					
					<polygon fill="#FFFFFF" points="19.316,449.998 33.636,464.316 31.161,466.792 14.367,449.998 31.161,433.204 33.636,435.68 
						19.317,449.998 					"/>
				</g>
			</g>
		</g>
	</g>
</g>
<g id="Layer_13">
	<g opacity="0.2">
		<g>
			
				k_arms
			<g>
				<g>
					
					<polygon fill="#FFFFFF" points="76.684,449.998 62.364,464.316 64.839,466.792 81.633,449.998 64.839,433.204 62.364,435.68 
						76.683,449.998 					"/>
				</g>
			</g>
		</g>
	</g>
</g>
<g id="Layer_15">
	<g opacity="0.8">
		<g>
			
				k_arms
			<g>
				<g>
					
					<polygon fill="#FFFFFF" points="185.065,57.697 179.762,63 185.065,68.303 183.651,69.718 178.348,64.414 176.934,63 
						178.348,61.586 183.651,56.283 					"/>
				</g>
			</g>
		</g>
	</g>
</g>
<g id="Layer_19">
	<g>
		<g>
			
				k_arms
			<g>
				<g>
					
					<polygon fill="#FFFFFF" points="227.065,57.697 221.762,63 227.065,68.303 225.651,69.718 220.348,64.414 218.934,63 
						220.348,61.586 225.651,56.283 					"/>
				</g>
			</g>
		</g>
	</g>
</g>
<g id="Layer_17">
	<g opacity="0.2">
		<g>
			
				k_arms
			<g>
				<g>
					
					<polygon fill="#FFFFFF" points="269.065,57.697 263.762,63 269.065,68.303 267.651,69.718 262.348,64.414 260.934,63 
						262.348,61.586 267.651,56.283 					"/>
				</g>
			</g>
		</g>
	</g>
</g>
<g id="Layer_18">
	<g opacity="0.2">
		<g>
			
				k_arms
			<g>
				<g>
					
					<polygon fill="#FFFFFF" points="260.935,99.697 266.238,105 260.935,110.303 262.349,111.718 267.652,106.414 269.066,105 
						267.652,103.586 262.349,98.283 					"/>
				</g>
			</g>
		</g>
	</g>
	<g opacity="0.8">
		<g>
			
				k_arms
			<g>
				<g>
					
					<polygon fill="#FFFFFF" points="176.935,99.697 182.238,105 176.935,110.303 178.349,111.718 183.652,106.414 185.066,105 
						183.652,103.586 178.349,98.283 					"/>
				</g>
			</g>
		</g>
	</g>
	<g>
		<g>
			
				k_arms
			<g>
				<g>
					
					<polygon fill="#FFFFFF" points="218.935,99.697 224.238,105 218.935,110.303 220.349,111.718 225.652,106.414 227.066,105 
						225.652,103.586 220.349,98.283 					"/>
				</g>
			</g>
		</g>
	</g>
</g>
<g id="Layer_20">
	<g opacity="0.2">
		<g>
			
				k_arms
			<g>
				<g>
					
					<polygon fill="#FFFFFF" points="385.696,67.065 391,61.762 396.303,67.065 397.718,65.651 392.414,60.348 391,58.934 
						389.586,60.348 384.282,65.651 					"/>
				</g>
			</g>
		</g>
	</g>
	<g opacity="0.8">
		<g>
			
				k_arms
			<g>
				<g>
					
					<polygon fill="#FFFFFF" points="301.697,67.065 307,61.762 312.303,67.065 313.718,65.651 308.414,60.348 307,58.934 
						305.586,60.348 300.283,65.651 					"/>
				</g>
			</g>
		</g>
	</g>
	<g>
		<g>
			
				k_arms
			<g>
				<g>
					
					<polygon fill="#FFFFFF" points="343.697,67.065 349,61.762 354.303,67.065 355.718,65.651 350.414,60.348 349,58.934 
						347.586,60.348 342.283,65.651 					"/>
				</g>
			</g>
		</g>
	</g>
</g>
<g id="Layer_21">
	<g opacity="0.8">
		<g>
			
				k_arms
			<g>
				<g>
					
					<polygon fill="#FFFFFF" points="301.697,100.935 307,106.238 312.303,100.935 313.718,102.349 308.414,107.652 307,109.066 
						305.586,107.652 300.283,102.349 					"/>
				</g>
			</g>
		</g>
	</g>
	<g>
		<g>
			
				k_arms
			<g>
				<g>
					
					<polygon fill="#FFFFFF" points="343.696,100.935 349,106.238 354.303,100.935 355.718,102.349 350.414,107.652 349,109.066 
						347.586,107.652 342.282,102.349 					"/>
				</g>
			</g>
		</g>
	</g>
	<g opacity="0.2">
		<g>
			
				k_arms
			<g>
				<g>
					
					<polygon fill="#FFFFFF" points="385.696,100.935 391,106.238 396.303,100.935 397.718,102.349 392.414,107.652 391,109.066 
						389.586,107.652 384.282,102.349 					"/>
				</g>
			</g>
		</g>
	</g>
</g>
<g id="Layer_22">
	<g>
		<rect x="252" y="473" fill="#FFFFFF" width="248" height="27"/>
		<g>
			<path d="M267.837,489.529c-0.839,0.844-1.854,1.266-3.045,1.266s-2.206-0.422-3.045-1.266s-1.259-1.861-1.259-3.053
				c0-1.188,0.42-2.199,1.259-3.035s1.854-1.254,3.045-1.254s2.206,0.418,3.045,1.254s1.259,1.848,1.259,3.035
				C269.096,487.668,268.676,488.686,267.837,489.529z M262.187,483.863c-0.714,0.723-1.071,1.596-1.071,2.619
				c0,1.031,0.355,1.91,1.065,2.637c0.718,0.727,1.589,1.09,2.611,1.09s1.894-0.363,2.611-1.09c0.71-0.727,1.065-1.605,1.065-2.637
				c0-1.023-0.357-1.896-1.071-2.619c-0.714-0.727-1.583-1.09-2.605-1.09C263.773,482.773,262.904,483.137,262.187,483.863z
				 M266.22,488.542c-0.366,0.291-0.806,0.437-1.316,0.437c-0.644,0-1.194-0.23-1.65-0.691s-0.685-1.074-0.685-1.84
				c0-0.715,0.205-1.313,0.617-1.793s0.949-0.721,1.612-0.721c0.417,0,0.794,0.084,1.13,0.252c0.58,0.301,0.896,0.801,0.947,1.5
				h-0.709c-0.035-0.293-0.158-0.547-0.368-0.762c-0.211-0.215-0.517-0.322-0.918-0.322c-0.565,0-0.975,0.254-1.228,0.762
				c-0.164,0.324-0.246,0.674-0.246,1.049c0,0.535,0.131,0.985,0.395,1.351s0.645,0.548,1.143,0.548c0.32,0,0.588-0.085,0.802-0.255
				s0.364-0.417,0.45-0.741h0.709C266.814,487.842,266.586,488.251,266.22,488.542z"/>
			<path d="M273.473,482.188h1.373l4.293,6.954v-6.954h1.113v8.607h-1.311l-4.355-6.946v6.946h-1.113V482.188z"/>
			<path d="M282.402,482.188h1.178v8.607h-1.178V482.188z"/>
			<path d="M291.561,482.814c0.594,0.574,0.925,1.227,0.99,1.957h-1.137c-0.127-0.555-0.379-0.994-0.757-1.318
				s-0.908-0.486-1.591-0.486c-0.832,0-1.505,0.298-2.018,0.895c-0.512,0.596-0.768,1.51-0.768,2.741
				c0,1.009,0.23,1.827,0.693,2.454c0.463,0.628,1.152,0.941,2.069,0.941c0.845,0,1.487-0.33,1.929-0.99
				c0.234-0.348,0.408-0.805,0.523-1.371h1.137c-0.101,0.906-0.433,1.666-0.996,2.279c-0.676,0.738-1.587,1.107-2.734,1.107
				c-0.988,0-1.818-0.303-2.49-0.909c-0.885-0.801-1.326-2.038-1.326-3.711c0-1.271,0.332-2.313,0.996-3.125
				c0.719-0.884,1.709-1.325,2.971-1.325C290.13,481.953,290.966,482.24,291.561,482.814z"/>
			<path d="M294.139,482.188h1.137v4.213l4.307-4.213h1.63l-3.678,3.474l3.754,5.134h-1.526l-3.084-4.325l-1.402,1.325v3h-1.137
				V482.188z"/>
			<path d="M306.238,488.018c0.026,0.488,0.137,0.885,0.333,1.189c0.372,0.57,1.029,0.855,1.97,0.855
				c0.422,0,0.805-0.063,1.151-0.188c0.67-0.242,1.005-0.676,1.005-1.301c0-0.469-0.143-0.803-0.426-1.002
				c-0.287-0.195-0.738-0.365-1.352-0.51l-1.129-0.264c-0.738-0.172-1.26-0.361-1.566-0.568c-0.53-0.359-0.795-0.896-0.795-1.611
				c0-0.773,0.26-1.408,0.781-1.904c0.521-0.496,1.258-0.744,2.213-0.744c0.877,0,1.623,0.218,2.237,0.653s0.921,1.132,0.921,2.089
				h-1.096c-0.057-0.461-0.176-0.814-0.359-1.061c-0.341-0.449-0.92-0.674-1.736-0.674c-0.658,0-1.133,0.145-1.421,0.434
				s-0.433,0.625-0.433,1.008c0,0.422,0.17,0.73,0.511,0.926c0.224,0.125,0.729,0.281,1.517,0.469l1.169,0.275
				c0.563,0.133,0.999,0.314,1.306,0.545c0.529,0.402,0.795,0.986,0.795,1.752c0,0.953-0.338,1.635-1.014,2.045
				c-0.677,0.41-1.463,0.615-2.357,0.615c-1.045,0-1.861-0.273-2.451-0.82c-0.592-0.543-0.881-1.279-0.869-2.209H306.238z"/>
			<path d="M319.738,482.188v1.025h-2.9v7.582h-1.178v-7.582h-2.9v-1.025H319.738z"/>
			<path d="M322.438,482.188h1.316l3.124,8.607h-1.277l-0.898-2.578h-3.377l-0.934,2.578h-1.195L322.438,482.188z M324.371,487.268
				l-1.325-3.803l-1.377,3.803H324.371z"/>
			<path d="M327.93,482.188h1.137v4.213l4.307-4.213h1.63l-3.678,3.474l3.754,5.134h-1.526l-3.084-4.325l-1.402,1.325v3h-1.137
				V482.188z"/>
			<path d="M336.045,482.188h6.246v1.055h-5.109v2.613h4.723v0.996h-4.723v2.918h5.197v1.025h-6.334V482.188z"/>
			<path d="M343.938,482.188h1.374l4.292,6.954v-6.954h1.113v8.607h-1.31l-4.356-6.946v6.946h-1.113V482.188z"/>
			<path d="M352.574,482.188h3.722c1.015,0,1.736,0.301,2.164,0.902c0.252,0.355,0.378,0.766,0.378,1.23
				c0,0.543-0.154,0.988-0.463,1.336c-0.16,0.184-0.391,0.352-0.691,0.504c0.441,0.168,0.771,0.357,0.99,0.568
				c0.387,0.375,0.58,0.893,0.58,1.553c0,0.555-0.175,1.057-0.524,1.506c-0.523,0.672-1.354,1.008-2.494,1.008h-3.661V482.188z
				 M355.86,485.826c0.497,0,0.884-0.068,1.16-0.205c0.435-0.215,0.651-0.602,0.651-1.16c0-0.563-0.23-0.941-0.692-1.137
				c-0.261-0.109-0.647-0.164-1.161-0.164h-2.102v2.666H355.86z M356.254,489.799c0.722,0,1.236-0.207,1.544-0.621
				c0.193-0.262,0.29-0.578,0.29-0.949c0-0.625-0.282-1.051-0.846-1.277c-0.3-0.121-0.696-0.182-1.189-0.182h-2.336v3.029H356.254z"
				/>
			<path d="M361.867,482.188v5.32c0,0.625,0.118,1.145,0.354,1.559c0.351,0.625,0.94,0.938,1.771,0.938
				c0.996,0,1.674-0.338,2.032-1.014c0.192-0.367,0.289-0.861,0.289-1.482v-5.32h1.178v4.834c0,1.059-0.144,1.873-0.43,2.443
				c-0.524,1.039-1.517,1.559-2.975,1.559s-2.448-0.52-2.969-1.559c-0.287-0.57-0.43-1.385-0.43-2.443v-4.834H361.867z"/>
			<path d="M369.414,482.188h3.912c0.645,0,1.176,0.096,1.594,0.287c0.794,0.367,1.191,1.045,1.191,2.033
				c0,0.516-0.106,0.938-0.319,1.266s-0.511,0.592-0.894,0.791c0.336,0.137,0.589,0.316,0.759,0.539s0.265,0.584,0.284,1.084
				l0.041,1.154c0.012,0.328,0.039,0.572,0.082,0.732c0.07,0.273,0.195,0.449,0.375,0.527v0.193h-1.43
				c-0.039-0.074-0.07-0.17-0.094-0.287s-0.043-0.344-0.059-0.68l-0.07-1.436c-0.026-0.563-0.229-0.939-0.609-1.131
				c-0.216-0.105-0.556-0.158-1.019-0.158h-2.579v3.691h-1.166V482.188z M373.201,486.131c0.532,0,0.952-0.109,1.262-0.328
				s0.465-0.613,0.465-1.184c0-0.613-0.217-1.031-0.649-1.254c-0.232-0.117-0.542-0.176-0.929-0.176h-2.77v2.941H373.201z"/>
			<path d="M383.669,482.434c0.843,0.449,1.359,1.236,1.548,2.361h-1.154c-0.138-0.629-0.423-1.087-0.855-1.374
				c-0.432-0.287-0.977-0.431-1.635-0.431c-0.78,0-1.438,0.299-1.971,0.896c-0.534,0.598-0.801,1.488-0.801,2.672
				c0,1.023,0.22,1.856,0.66,2.499s1.158,0.964,2.153,0.964c0.762,0,1.393-0.226,1.893-0.677c0.499-0.451,0.755-1.181,0.767-2.188
				h-2.695v-0.967h3.779v4.605h-0.75l-0.281-1.107c-0.389,0.434-0.732,0.734-1.031,0.902c-0.504,0.289-1.144,0.434-1.92,0.434
				c-1.003,0-1.865-0.33-2.588-0.99c-0.788-0.828-1.182-1.965-1.182-3.41c0-1.441,0.385-2.588,1.155-3.439
				c0.731-0.813,1.679-1.219,2.841-1.219C382.398,481.965,383.088,482.121,383.669,482.434z"/>
			<path d="M390.191,486.91h2.941v1.084h-2.941V486.91z"/>
			<path d="M398.049,482.188h5.971v1.055h-4.805v2.613h4.225v1.025h-4.225v3.914h-1.166V482.188z"/>
			<path d="M405.408,482.188h3.912c0.645,0,1.176,0.096,1.594,0.287c0.794,0.367,1.191,1.045,1.191,2.033
				c0,0.516-0.106,0.938-0.319,1.266s-0.511,0.592-0.894,0.791c0.336,0.137,0.589,0.316,0.759,0.539s0.265,0.584,0.284,1.084
				l0.041,1.154c0.012,0.328,0.039,0.572,0.082,0.732c0.07,0.273,0.195,0.449,0.375,0.527v0.193h-1.43
				c-0.039-0.074-0.07-0.17-0.094-0.287s-0.043-0.344-0.059-0.68l-0.07-1.436c-0.026-0.563-0.229-0.939-0.609-1.131
				c-0.216-0.105-0.556-0.158-1.019-0.158h-2.579v3.691h-1.166V482.188z M409.195,486.131c0.532,0,0.952-0.109,1.262-0.328
				s0.465-0.613,0.465-1.184c0-0.613-0.217-1.031-0.649-1.254c-0.232-0.117-0.542-0.176-0.929-0.176h-2.77v2.941H409.195z"/>
			<path d="M414.045,482.188h6.246v1.055h-5.109v2.613h4.723v0.996h-4.723v2.918h5.197v1.025h-6.334V482.188z"/>
			<path d="M422.699,488.018c0.026,0.488,0.138,0.885,0.333,1.189c0.372,0.57,1.029,0.855,1.97,0.855
				c0.422,0,0.806-0.063,1.151-0.188c0.67-0.242,1.005-0.676,1.005-1.301c0-0.469-0.142-0.803-0.426-1.002
				c-0.287-0.195-0.738-0.365-1.351-0.51l-1.13-0.264c-0.738-0.172-1.26-0.361-1.566-0.568c-0.53-0.359-0.795-0.896-0.795-1.611
				c0-0.773,0.261-1.408,0.781-1.904s1.258-0.744,2.212-0.744c0.878,0,1.624,0.218,2.238,0.653s0.921,1.132,0.921,2.089h-1.096
				c-0.057-0.461-0.176-0.814-0.359-1.061c-0.341-0.449-0.92-0.674-1.736-0.674c-0.659,0-1.133,0.145-1.421,0.434
				s-0.433,0.625-0.433,1.008c0,0.422,0.17,0.73,0.511,0.926c0.224,0.125,0.729,0.281,1.516,0.469l1.17,0.275
				c0.563,0.133,0.999,0.314,1.306,0.545c0.53,0.402,0.795,0.986,0.795,1.752c0,0.953-0.338,1.635-1.015,2.045
				c-0.676,0.41-1.462,0.615-2.356,0.615c-1.044,0-1.861-0.273-2.452-0.82c-0.591-0.543-0.88-1.279-0.868-2.209H422.699z"/>
			<path d="M436.029,482.814c0.595,0.574,0.925,1.227,0.99,1.957h-1.137c-0.127-0.555-0.379-0.994-0.757-1.318
				s-0.908-0.486-1.591-0.486c-0.833,0-1.505,0.298-2.017,0.895c-0.513,0.596-0.769,1.51-0.769,2.741
				c0,1.009,0.231,1.827,0.693,2.454c0.463,0.628,1.152,0.941,2.069,0.941c0.845,0,1.487-0.33,1.929-0.99
				c0.233-0.348,0.408-0.805,0.523-1.371h1.137c-0.101,0.906-0.433,1.666-0.996,2.279c-0.676,0.738-1.587,1.107-2.734,1.107
				c-0.988,0-1.818-0.303-2.49-0.909c-0.884-0.801-1.326-2.038-1.326-3.711c0-1.271,0.332-2.313,0.996-3.125
				c0.718-0.884,1.708-1.325,2.971-1.325C434.599,481.953,435.435,482.24,436.029,482.814z"/>
			<path d="M445.697,483.418c0.57,0.762,0.855,1.736,0.855,2.924c0,1.285-0.326,2.354-0.979,3.205c-0.766,1-1.857,1.5-3.275,1.5
				c-1.324,0-2.365-0.438-3.123-1.313c-0.676-0.844-1.014-1.91-1.014-3.199c0-1.164,0.289-2.16,0.867-2.988
				c0.742-1.063,1.84-1.594,3.293-1.594C443.842,481.953,444.967,482.441,445.697,483.418z M444.669,488.904
				c0.459-0.737,0.688-1.584,0.688-2.542c0-1.013-0.265-1.828-0.794-2.445c-0.529-0.618-1.253-0.927-2.171-0.927
				c-0.891,0-1.617,0.306-2.18,0.918c-0.563,0.611-0.844,1.514-0.844,2.706c0,0.954,0.241,1.759,0.724,2.413
				c0.482,0.655,1.265,0.982,2.347,0.982C443.467,490.01,444.21,489.642,444.669,488.904z"/>
			<path d="M452.172,488.229c0,0.727-0.107,1.291-0.322,1.693c-0.399,0.734-1.158,1.102-2.276,1.102
				c-0.646,0-1.197-0.175-1.654-0.524c-0.458-0.35-0.687-0.972-0.687-1.866v-0.615h1.096v0.615c0,0.469,0.104,0.821,0.314,1.058
				c0.209,0.236,0.535,0.354,0.978,0.354c0.622,0,1.029-0.213,1.222-0.639c0.117-0.262,0.176-0.756,0.176-1.482v-5.736h1.154
				V488.229z"/>
			<path d="M454.703,488.018c0.026,0.488,0.138,0.885,0.333,1.189c0.372,0.57,1.029,0.855,1.97,0.855
				c0.422,0,0.806-0.063,1.151-0.188c0.67-0.242,1.005-0.676,1.005-1.301c0-0.469-0.142-0.803-0.426-1.002
				c-0.287-0.195-0.738-0.365-1.351-0.51l-1.13-0.264c-0.738-0.172-1.26-0.361-1.566-0.568c-0.53-0.359-0.795-0.896-0.795-1.611
				c0-0.773,0.261-1.408,0.781-1.904s1.258-0.744,2.212-0.744c0.878,0,1.624,0.218,2.238,0.653s0.921,1.132,0.921,2.089h-1.096
				c-0.057-0.461-0.176-0.814-0.359-1.061c-0.341-0.449-0.92-0.674-1.736-0.674c-0.659,0-1.133,0.145-1.421,0.434
				s-0.433,0.625-0.433,1.008c0,0.422,0.17,0.73,0.511,0.926c0.224,0.125,0.729,0.281,1.516,0.469l1.17,0.275
				c0.563,0.133,0.999,0.314,1.306,0.545c0.53,0.402,0.795,0.986,0.795,1.752c0,0.953-0.338,1.635-1.015,2.045
				c-0.676,0.41-1.462,0.615-2.356,0.615c-1.044,0-1.861-0.273-2.452-0.82c-0.591-0.543-0.88-1.279-0.868-2.209H454.703z"/>
			<path d="M462.057,489.518h1.225v1.277h-1.225V489.518z"/>
			<path d="M471.367,482.814c0.595,0.574,0.925,1.227,0.99,1.957h-1.137c-0.127-0.555-0.379-0.994-0.757-1.318
				s-0.908-0.486-1.591-0.486c-0.833,0-1.505,0.298-2.017,0.895c-0.513,0.596-0.769,1.51-0.769,2.741
				c0,1.009,0.231,1.827,0.693,2.454c0.463,0.628,1.152,0.941,2.069,0.941c0.845,0,1.487-0.33,1.929-0.99
				c0.233-0.348,0.408-0.805,0.523-1.371h1.137c-0.101,0.906-0.433,1.666-0.996,2.279c-0.676,0.738-1.587,1.107-2.734,1.107
				c-0.988,0-1.818-0.303-2.49-0.909c-0.884-0.801-1.326-2.038-1.326-3.711c0-1.271,0.332-2.313,0.996-3.125
				c0.718-0.884,1.708-1.325,2.971-1.325C469.937,481.953,470.772,482.24,471.367,482.814z"/>
			<path d="M481.035,483.418c0.57,0.762,0.855,1.736,0.855,2.924c0,1.285-0.326,2.354-0.979,3.205c-0.766,1-1.857,1.5-3.275,1.5
				c-1.324,0-2.365-0.438-3.123-1.313c-0.676-0.844-1.014-1.91-1.014-3.199c0-1.164,0.289-2.16,0.867-2.988
				c0.742-1.063,1.84-1.594,3.293-1.594C479.18,481.953,480.305,482.441,481.035,483.418z M480.007,488.904
				c0.459-0.737,0.688-1.584,0.688-2.542c0-1.013-0.265-1.828-0.794-2.445c-0.529-0.618-1.253-0.927-2.171-0.927
				c-0.891,0-1.617,0.306-2.18,0.918c-0.563,0.611-0.844,1.514-0.844,2.706c0,0.954,0.241,1.759,0.724,2.413
				c0.482,0.655,1.265,0.982,2.347,0.982C478.805,490.01,479.548,489.642,480.007,488.904z"/>
			<path d="M483.25,482.188h1.671l2.475,7.277l2.457-7.277h1.659v8.607h-1.113v-5.08c0-0.176,0.004-0.467,0.012-0.873
				s0.012-0.842,0.012-1.307l-2.457,7.26h-1.156l-2.48-7.26v0.264c0,0.211,0.006,0.532,0.018,0.964s0.018,0.749,0.018,0.952v5.08
				h-1.113V482.188z"/>
		</g>
	</g>
</g>
<g id="Layer_23">
	<g>
		
			k_arms
		<g>
			<g>
				<polygon fill="#FFFFFF" points="172.33,146.298 174.064,148.032 175.798,146.298 177.532,144.563 179.266,146.298 181,148.032 
					182.734,146.298 184.468,144.563 186.201,146.298 187.936,148.032 189.67,146.298 190,145.968 190,138.5 185,133.5 172,133.5 
					172,145.968 				"/>
				<polygon fill="#FFFFFF" points="189.67,149.765 187.936,151.5 186.201,149.765 184.468,148.032 182.734,149.765 181,151.5 
					179.266,149.765 177.532,148.032 175.798,149.765 174.064,151.5 172.33,149.765 172,149.436 172,160.5 190,160.5 190,149.436 
									"/>
			</g>
		</g>
	</g>
</g>
</svg>
