<?xml version="1.0" encoding="UTF-8" standalone="no"?>
<svg width="488px" height="486px" viewBox="0 0 488 486" version="1.1" xmlns="http://www.w3.org/2000/svg" xmlns:xlink="http://www.w3.org/1999/xlink">
    <!-- Generator: Sketch 40.1 (33804) - http://www.bohemiancoding.com/sketch -->
    <title>sprite 2</title>
    <desc>Created with Sketch.</desc>
    <defs></defs>
    <g id="Page-1" stroke="none" stroke-width="1" fill="none" fill-rule="evenodd">
        <g id="sprite">
            <g id="Layer_2" transform="translate(98.000000, 16.000000)" opacity="0.5" fill="#FFFFFF">
                <g id="Group">
                    <g id="Shape">
                        <g>
                            <polygon points="0.201 36.971 3.029 39.799 22.828 20 3.029 0.201 0.201 3.029 17.172 20"></polygon>
                        </g>
                    </g>
                </g>
            </g>
            <g id="Layer_5" transform="translate(98.000000, 116.000000)" fill="#FFFFFF">
                <g id="Group">
                    <g id="Shape">
                        <polygon points="0.201 36.971 3.029 39.799 22.828 20 3.029 0.201 0.201 3.029 17.172 20"></polygon>
                    </g>
                </g>
            </g>
            <g id="Layer_3" transform="translate(15.000000, 16.000000)" opacity="0.5" fill="#FFFFFF">
                <g id="Group">
                    <g id="Shape">
                        <g>
                            <polygon points="22.799 36.971 19.971 39.799 0.172 20 19.971 0.201 22.799 3.029 5.828 20"></polygon>
                        </g>
                    </g>
                </g>
            </g>
            <g id="Layer_4" transform="translate(15.000000, 116.000000)" fill="#FFFFFF">
                <g id="Group">
                    <g id="Shape">
                        <polygon points="22.799 36.971 19.971 39.799 0.172 20 19.971 0.201 22.799 3.029 5.828 20"></polygon>
                    </g>
                </g>
            </g>
            <g id="Layer_6" transform="translate(15.000000, 216.000000)" opacity="0.2" fill="#FFFFFF">
                <g id="Group">
                    <g id="Shape">
                        <g>
                            <polygon points="22.799 36.971 19.971 39.799 0.172 20 19.971 0.201 22.799 3.029 5.828 20"></polygon>
                        </g>
                    </g>
                </g>
            </g>
            <g id="Layer_7" transform="translate(98.000000, 216.000000)" opacity="0.2" fill="#FFFFFF">
                <g id="Group">
                    <g id="Shape">
                        <g>
                            <polygon points="0.201 36.971 3.029 39.799 22.828 20 3.029 0.201 0.201 3.029 17.172 20"></polygon>
                        </g>
                    </g>
                </g>
            </g>
            <g id="Layer_8" transform="translate(162.000000, 0.000000)" fill="#FFFFFF">
                <g id="Group" opacity="0.8">
                    <g id="Shape">
                        <g>
                            <g>
                                <polygon points="13.718 1.697 12.304 0.283 7 5.586 1.697 0.282 0.283 1.696 5.586 7 0.283 12.304 1.697 13.718 7 8.414 12.304 13.718 13.718 12.304 8.414 7"></polygon>
                            </g>
                        </g>
                    </g>
                </g>
                <g id="Group" transform="translate(42.000000, 0.000000)">
                    <g id="Shape">
                        <polygon points="13.718 1.697 12.304 0.283 7 5.586 1.697 0.282 0.283 1.696 5.586 7 0.283 12.304 1.697 13.718 7 8.414 12.304 13.718 13.718 12.304 8.414 7"></polygon>
                    </g>
                </g>
            </g>
            <g id="Layer_10" transform="translate(0.000000, 297.000000)" opacity="0.5" fill="#FFFFFF">
                <g id="Group">
                    <g id="Shape">
                        <g>
                            <polygon points="7.316 18.998 21.636 33.316 19.161 35.792 2.367 18.998 19.161 2.204 21.636 4.68 7.317 18.998"></polygon>
                        </g>
                    </g>
                </g>
            </g>
            <g id="Layer_9" transform="translate(50.000000, 299.000000)" opacity="0.5" fill="#FFFFFF">
                <g id="Group">
                    <g id="Shape">
                        <g>
                            <polygon points="14.684 16.998 0.364 31.316 2.839 33.792 19.633 16.998 2.839 0.204 0.364 2.68 14.683 16.998"></polygon>
                        </g>
                    </g>
                </g>
            </g>
            <g id="Layer_12" transform="translate(2.000000, 359.000000)" fill="#FFFFFF">
                <g id="Group">
                    <g id="Shape">
                        <polygon points="5.316 16.998 19.636 31.316 17.161 33.792 0.367 16.998 17.161 0.204 19.636 2.68 5.317 16.998"></polygon>
                    </g>
                </g>
            </g>
            <g id="Layer_11" transform="translate(50.000000, 359.000000)" fill="#FFFFFF">
                <g id="Group">
                    <g id="Shape">
                        <polygon points="14.684 16.998 0.364 31.316 2.839 33.792 19.633 16.998 2.839 0.204 0.364 2.68 14.683 16.998"></polygon>
                    </g>
                </g>
            </g>
            <g id="Layer_14" transform="translate(2.000000, 419.000000)" opacity="0.2" fill="#FFFFFF">
                <g id="Group">
                    <g id="Shape">
                        <g>
                            <polygon points="5.316 16.998 19.636 31.316 17.161 33.792 0.367 16.998 17.161 0.204 19.636 2.68 5.317 16.998"></polygon>
                        </g>
                    </g>
                </g>
            </g>
            <g id="Layer_13" transform="translate(50.000000, 419.000000)" opacity="0.2" fill="#FFFFFF">
                <g id="Group">
                    <g id="Shape">
                        <g>
                            <polygon points="14.684 16.998 0.364 31.316 2.839 33.792 19.633 16.998 2.839 0.204 0.364 2.68 14.683 16.998"></polygon>
                        </g>
                    </g>
                </g>
            </g>
            <g id="Layer_15" transform="translate(164.000000, 42.000000)" opacity="0.8" fill="#FFFFFF">
                <g id="Group">
                    <g id="Shape">
                        <g>
                            <polygon points="9.065 1.697 3.762 7 9.065 12.303 7.651 13.718 2.348 8.414 0.934 7 2.348 5.586 7.651 0.283"></polygon>
                        </g>
                    </g>
                </g>
            </g>
            <g id="Layer_19" transform="translate(206.000000, 42.000000)" fill="#FFFFFF">
                <g id="Group">
                    <g id="Shape">
                        <polygon points="9.065 1.697 3.762 7 9.065 12.303 7.651 13.718 2.348 8.414 0.934 7 2.348 5.586 7.651 0.283"></polygon>
                    </g>
                </g>
            </g>
            <g id="Layer_17" transform="translate(248.000000, 42.000000)" opacity="0.2" fill="#FFFFFF">
                <g id="Group">
                    <g id="Shape">
                        <g>
                            <polygon points="9.065 1.697 3.762 7 9.065 12.303 7.651 13.718 2.348 8.414 0.934 7 2.348 5.586 7.651 0.283"></polygon>
                        </g>
                    </g>
                </g>
            </g>
            <g id="Layer_18" transform="translate(164.000000, 84.000000)" fill="#FFFFFF">
                <g id="Group" opacity="0.2" transform="translate(84.000000, 0.000000)">
                    <g id="Shape">
                        <g>
                            <polygon points="0.935 1.697 6.238 7 0.935 12.303 2.349 13.718 7.652 8.414 9.066 7 7.652 5.586 2.349 0.283"></polygon>
                        </g>
                    </g>
                </g>
                <g id="Group" opacity="0.8">
                    <g id="Shape">
                        <g>
                            <polygon points="0.935 1.697 6.238 7 0.935 12.303 2.349 13.718 7.652 8.414 9.066 7 7.652 5.586 2.349 0.283"></polygon>
                        </g>
                    </g>
                </g>
                <g id="Group" transform="translate(42.000000, 0.000000)">
                    <g id="Shape">
                        <polygon points="0.935 1.697 6.238 7 0.935 12.303 2.349 13.718 7.652 8.414 9.066 7 7.652 5.586 2.349 0.283"></polygon>
                    </g>
                </g>
            </g>
            <g id="Layer_20" transform="translate(288.000000, 44.000000)" fill="#FFFFFF">
                <g id="Group" opacity="0.2" transform="translate(84.000000, 0.000000)">
                    <g id="Shape">
                        <g>
                            <polygon points="1.696 9.065 7 3.762 12.303 9.065 13.718 7.651 8.414 2.348 7 0.934 5.586 2.348 0.282 7.651"></polygon>
                        </g>
                    </g>
                </g>
                <g id="Group" opacity="0.8">
                    <g id="Shape">
                        <g>
                            <polygon points="1.697 9.065 7 3.762 12.303 9.065 13.718 7.651 8.414 2.348 7 0.934 5.586 2.348 0.283 7.651"></polygon>
                        </g>
                    </g>
                </g>
                <g id="Group" transform="translate(42.000000, 0.000000)">
                    <g id="Shape">
                        <polygon points="1.697 9.065 7 3.762 12.303 9.065 13.718 7.651 8.414 2.348 7 0.934 5.586 2.348 0.283 7.651"></polygon>
                    </g>
                </g>
            </g>
            <g id="Layer_21" transform="translate(288.000000, 86.000000)" fill="#FFFFFF">
                <g id="Group" opacity="0.8">
                    <g id="Shape">
                        <g>
                            <polygon points="1.697 0.935 7 6.238 12.303 0.935 13.718 2.349 8.414 7.652 7 9.066 5.586 7.652 0.283 2.349"></polygon>
                        </g>
                    </g>
                </g>
                <g id="Group" transform="translate(42.000000, 0.000000)">
                    <g id="Shape">
                        <polygon points="1.696 0.935 7 6.238 12.303 0.935 13.718 2.349 8.414 7.652 7 9.066 5.586 7.652 0.282 2.349"></polygon>
                    </g>
                </g>
                <g id="Group" opacity="0.2" transform="translate(84.000000, 0.000000)">
                    <g id="Shape">
                        <g>
                            <polygon points="1.696 0.935 7 6.238 12.303 0.935 13.718 2.349 8.414 7.652 7 9.066 5.586 7.652 0.282 2.349"></polygon>
                        </g>
                    </g>
                </g>
            </g>
            <g id="Layer_22" transform="translate(240.000000, 459.000000)">
                <g id="Group">
                    <rect id="Rectangle-path" fill="#FFFFFF" x="0" y="0" width="248" height="27"></rect>
                    <g transform="translate(8.000000, 8.000000)" id="Shape" fill="#000000">
                        <path d="M7.837,8.529 C6.998,9.373 5.983,9.795 4.792,9.795 C3.601,9.795 2.586,9.373 1.747,8.529 C0.908,7.685 0.488,6.668 0.488,5.476 C0.488,4.288 0.908,3.277 1.747,2.441 C2.586,1.605 3.601,1.187 4.792,1.187 C5.983,1.187 6.998,1.605 7.837,2.441 C8.676,3.277 9.096,4.289 9.096,5.476 C9.096,6.668 8.676,7.686 7.837,8.529 L7.837,8.529 Z M2.187,2.863 C1.473,3.586 1.116,4.459 1.116,5.482 C1.116,6.513 1.471,7.392 2.181,8.119 C2.899,8.846 3.77,9.209 4.792,9.209 C5.814,9.209 6.686,8.846 7.403,8.119 C8.113,7.392 8.468,6.514 8.468,5.482 C8.468,4.459 8.111,3.586 7.397,2.863 C6.683,2.136 5.814,1.773 4.792,1.773 C3.773,1.773 2.904,2.137 2.187,2.863 L2.187,2.863 Z M6.22,7.542 C5.854,7.833 5.414,7.979 4.904,7.979 C4.26,7.979 3.71,7.749 3.254,7.288 C2.798,6.827 2.569,6.214 2.569,5.448 C2.569,4.733 2.774,4.135 3.186,3.655 C3.598,3.175 4.135,2.934 4.798,2.934 C5.215,2.934 5.592,3.018 5.928,3.186 C6.508,3.487 6.824,3.987 6.875,4.686 L6.166,4.686 C6.131,4.393 6.008,4.139 5.798,3.924 C5.587,3.709 5.281,3.602 4.88,3.602 C4.315,3.602 3.905,3.856 3.652,4.364 C3.488,4.688 3.406,5.038 3.406,5.413 C3.406,5.948 3.537,6.398 3.801,6.764 C4.065,7.13 4.446,7.312 4.944,7.312 C5.264,7.312 5.532,7.227 5.746,7.057 C5.96,6.887 6.11,6.64 6.196,6.316 L6.905,6.316 C6.814,6.842 6.586,7.251 6.22,7.542 L6.22,7.542 Z"></path>
                        <polygon points="13.473 1.188 14.846 1.188 19.139 8.142 19.139 1.188 20.252 1.188 20.252 9.795 18.941 9.795 14.586 2.849 14.586 9.795 13.473 9.795"></polygon>
                        <polygon points="22.402 1.188 23.58 1.188 23.58 9.795 22.402 9.795"></polygon>
                        <path d="M31.561,1.814 C32.155,2.388 32.486,3.041 32.551,3.771 L31.414,3.771 C31.287,3.216 31.035,2.777 30.657,2.453 C30.279,2.129 29.749,1.967 29.066,1.967 C28.234,1.967 27.561,2.265 27.048,2.862 C26.536,3.458 26.28,4.372 26.28,5.603 C26.28,6.612 26.51,7.43 26.973,8.057 C27.436,8.685 28.125,8.998 29.042,8.998 C29.887,8.998 30.529,8.668 30.971,8.008 C31.205,7.66 31.379,7.203 31.494,6.637 L32.631,6.637 C32.53,7.543 32.198,8.303 31.635,8.916 C30.959,9.654 30.048,10.023 28.901,10.023 C27.913,10.023 27.083,9.72 26.411,9.114 C25.526,8.313 25.085,7.076 25.085,5.403 C25.085,4.132 25.417,3.09 26.081,2.278 C26.8,1.394 27.79,0.953 29.052,0.953 C30.13,0.953 30.966,1.24 31.561,1.814 L31.561,1.814 Z"></path>
                        <polygon points="34.139 1.188 35.276 1.188 35.276 5.401 39.583 1.188 41.213 1.188 37.535 4.662 41.289 9.796 39.763 9.796 36.679 5.471 35.277 6.796 35.277 9.796 34.14 9.796 34.14 1.188"></polygon>
                        <path d="M46.238,7.018 C46.264,7.506 46.375,7.903 46.571,8.207 C46.943,8.777 47.6,9.062 48.541,9.062 C48.963,9.062 49.346,8.999 49.692,8.874 C50.362,8.632 50.697,8.198 50.697,7.573 C50.697,7.104 50.554,6.77 50.271,6.571 C49.984,6.376 49.533,6.206 48.919,6.061 L47.79,5.797 C47.052,5.625 46.53,5.436 46.224,5.229 C45.694,4.87 45.429,4.333 45.429,3.618 C45.429,2.845 45.689,2.21 46.21,1.714 C46.731,1.218 47.468,0.97 48.423,0.97 C49.3,0.97 50.046,1.188 50.66,1.623 C51.274,2.058 51.581,2.755 51.581,3.712 L50.485,3.712 C50.428,3.251 50.309,2.898 50.126,2.651 C49.785,2.202 49.206,1.977 48.39,1.977 C47.732,1.977 47.257,2.122 46.969,2.411 C46.681,2.7 46.536,3.036 46.536,3.419 C46.536,3.841 46.706,4.149 47.047,4.345 C47.271,4.47 47.776,4.626 48.564,4.814 L49.733,5.089 C50.296,5.222 50.732,5.403 51.039,5.634 C51.568,6.036 51.834,6.62 51.834,7.386 C51.834,8.339 51.496,9.021 50.82,9.431 C50.143,9.841 49.357,10.046 48.463,10.046 C47.418,10.046 46.602,9.773 46.012,9.226 C45.42,8.683 45.131,7.947 45.143,7.017 L46.238,7.017 L46.238,7.018 Z"></path>
                        <polygon points="59.738 1.188 59.738 2.213 56.838 2.213 56.838 9.795 55.66 9.795 55.66 2.213 52.76 2.213 52.76 1.188"></polygon>
                        <path d="M62.438,1.188 L63.754,1.188 L66.878,9.795 L65.601,9.795 L64.703,7.217 L61.326,7.217 L60.392,9.795 L59.197,9.795 L62.438,1.188 L62.438,1.188 Z M64.371,6.268 L63.046,2.465 L61.669,6.268 L64.371,6.268 L64.371,6.268 Z"></path>
                        <polygon points="67.93 1.188 69.067 1.188 69.067 5.401 73.374 1.188 75.004 1.188 71.326 4.662 75.08 9.796 73.554 9.796 70.47 5.471 69.068 6.796 69.068 9.796 67.931 9.796 67.931 1.188"></polygon>
                        <polygon points="76.045 1.188 82.291 1.188 82.291 2.243 77.182 2.243 77.182 4.856 81.905 4.856 81.905 5.852 77.182 5.852 77.182 8.77 82.379 8.77 82.379 9.795 76.045 9.795"></polygon>
                        <polygon points="83.938 1.188 85.312 1.188 89.604 8.142 89.604 1.188 90.717 1.188 90.717 9.795 89.407 9.795 85.051 2.849 85.051 9.795 83.938 9.795"></polygon>
                        <path d="M92.574,1.188 L96.296,1.188 C97.311,1.188 98.032,1.489 98.46,2.09 C98.712,2.445 98.838,2.856 98.838,3.32 C98.838,3.863 98.684,4.308 98.375,4.656 C98.215,4.84 97.984,5.008 97.684,5.16 C98.125,5.328 98.455,5.517 98.674,5.728 C99.061,6.103 99.254,6.621 99.254,7.281 C99.254,7.836 99.079,8.338 98.73,8.787 C98.207,9.459 97.376,9.795 96.236,9.795 L92.575,9.795 L92.575,1.188 L92.574,1.188 Z M95.86,4.826 C96.357,4.826 96.744,4.758 97.02,4.621 C97.455,4.406 97.671,4.019 97.671,3.461 C97.671,2.898 97.441,2.52 96.979,2.324 C96.718,2.215 96.332,2.16 95.818,2.16 L93.716,2.16 L93.716,4.826 L95.86,4.826 L95.86,4.826 Z M96.254,8.799 C96.976,8.799 97.49,8.592 97.798,8.178 C97.991,7.916 98.088,7.6 98.088,7.229 C98.088,6.604 97.806,6.178 97.242,5.952 C96.942,5.831 96.546,5.77 96.053,5.77 L93.717,5.77 L93.717,8.799 L96.254,8.799 L96.254,8.799 Z"></path>
                        <path d="M101.867,1.188 L101.867,6.508 C101.867,7.133 101.985,7.653 102.221,8.067 C102.572,8.692 103.161,9.005 103.992,9.005 C104.988,9.005 105.666,8.667 106.024,7.991 C106.216,7.624 106.313,7.13 106.313,6.509 L106.313,1.189 L107.491,1.189 L107.491,6.023 C107.491,7.082 107.347,7.896 107.061,8.466 C106.537,9.505 105.544,10.025 104.086,10.025 C102.628,10.025 101.638,9.505 101.117,8.466 C100.83,7.896 100.687,7.081 100.687,6.023 L100.687,1.189 L101.867,1.189 L101.867,1.188 Z"></path>
                        <path d="M109.414,1.188 L113.326,1.188 C113.971,1.188 114.502,1.284 114.92,1.475 C115.714,1.842 116.111,2.52 116.111,3.508 C116.111,4.024 116.005,4.446 115.792,4.774 C115.579,5.102 115.281,5.366 114.898,5.565 C115.234,5.702 115.487,5.881 115.657,6.104 C115.827,6.327 115.922,6.688 115.941,7.188 L115.982,8.342 C115.994,8.67 116.021,8.914 116.064,9.074 C116.134,9.347 116.259,9.523 116.439,9.601 L116.439,9.794 L115.009,9.794 C114.97,9.72 114.939,9.624 114.915,9.507 C114.891,9.39 114.872,9.163 114.856,8.827 L114.786,7.391 C114.76,6.828 114.557,6.452 114.177,6.26 C113.961,6.155 113.621,6.102 113.158,6.102 L110.579,6.102 L110.579,9.793 L109.413,9.793 L109.413,1.188 L109.414,1.188 Z M113.201,5.131 C113.733,5.131 114.153,5.022 114.463,4.803 C114.773,4.584 114.928,4.19 114.928,3.619 C114.928,3.006 114.711,2.588 114.279,2.365 C114.047,2.248 113.737,2.189 113.35,2.189 L110.58,2.189 L110.58,5.13 L113.201,5.13 L113.201,5.131 Z"></path>
                        <path d="M123.669,1.434 C124.512,1.883 125.028,2.67 125.217,3.795 L124.063,3.795 C123.925,3.166 123.64,2.708 123.208,2.421 C122.776,2.134 122.231,1.99 121.573,1.99 C120.793,1.99 120.135,2.289 119.602,2.886 C119.068,3.484 118.801,4.374 118.801,5.558 C118.801,6.581 119.021,7.414 119.461,8.057 C119.901,8.7 120.619,9.021 121.614,9.021 C122.376,9.021 123.007,8.795 123.507,8.344 C124.006,7.893 124.262,7.163 124.274,6.156 L121.579,6.156 L121.579,5.189 L125.358,5.189 L125.358,9.794 L124.608,9.794 L124.327,8.687 C123.938,9.121 123.595,9.421 123.296,9.589 C122.792,9.878 122.152,10.023 121.376,10.023 C120.373,10.023 119.511,9.693 118.788,9.033 C118,8.205 117.606,7.068 117.606,5.623 C117.606,4.182 117.991,3.035 118.761,2.184 C119.492,1.371 120.44,0.965 121.602,0.965 C122.398,0.965 123.088,1.121 123.669,1.434 L123.669,1.434 Z"></path>
                        <polygon points="130.191 5.91 133.132 5.91 133.132 6.994 130.191 6.994"></polygon>
                        <polygon points="138.049 1.188 144.02 1.188 144.02 2.243 139.215 2.243 139.215 4.856 143.44 4.856 143.44 5.881 139.215 5.881 139.215 9.795 138.049 9.795"></polygon>
                        <path d="M145.408,1.188 L149.32,1.188 C149.965,1.188 150.496,1.284 150.914,1.475 C151.708,1.842 152.105,2.52 152.105,3.508 C152.105,4.024 151.999,4.446 151.786,4.774 C151.573,5.102 151.275,5.366 150.892,5.565 C151.228,5.702 151.481,5.881 151.651,6.104 C151.821,6.327 151.916,6.688 151.935,7.188 L151.976,8.342 C151.988,8.67 152.015,8.914 152.058,9.074 C152.128,9.347 152.253,9.523 152.433,9.601 L152.433,9.794 L151.003,9.794 C150.964,9.72 150.933,9.624 150.909,9.507 C150.885,9.39 150.866,9.163 150.85,8.827 L150.78,7.391 C150.754,6.828 150.551,6.452 150.171,6.26 C149.955,6.155 149.615,6.102 149.152,6.102 L146.573,6.102 L146.573,9.793 L145.407,9.793 L145.407,1.188 L145.408,1.188 Z M149.195,5.131 C149.727,5.131 150.147,5.022 150.457,4.803 C150.767,4.584 150.922,4.19 150.922,3.619 C150.922,3.006 150.705,2.588 150.273,2.365 C150.041,2.248 149.731,2.189 149.344,2.189 L146.574,2.189 L146.574,5.13 L149.195,5.13 L149.195,5.131 Z"></path>
                        <polygon points="154.045 1.188 160.291 1.188 160.291 2.243 155.182 2.243 155.182 4.856 159.905 4.856 159.905 5.852 155.182 5.852 155.182 8.77 160.379 8.77 160.379 9.795 154.045 9.795"></polygon>
                        <path d="M162.699,7.018 C162.725,7.506 162.837,7.903 163.032,8.207 C163.404,8.777 164.061,9.062 165.002,9.062 C165.424,9.062 165.808,8.999 166.153,8.874 C166.823,8.632 167.158,8.198 167.158,7.573 C167.158,7.104 167.016,6.77 166.732,6.571 C166.445,6.376 165.994,6.206 165.381,6.061 L164.251,5.797 C163.513,5.625 162.991,5.436 162.685,5.229 C162.155,4.87 161.89,4.333 161.89,3.618 C161.89,2.845 162.151,2.21 162.671,1.714 C163.191,1.218 163.929,0.97 164.883,0.97 C165.761,0.97 166.507,1.188 167.121,1.623 C167.735,2.058 168.042,2.755 168.042,3.712 L166.946,3.712 C166.889,3.251 166.77,2.898 166.587,2.651 C166.246,2.202 165.667,1.977 164.851,1.977 C164.192,1.977 163.718,2.122 163.43,2.411 C163.142,2.7 162.997,3.036 162.997,3.419 C162.997,3.841 163.167,4.149 163.508,4.345 C163.732,4.47 164.237,4.626 165.024,4.814 L166.194,5.089 C166.757,5.222 167.193,5.403 167.5,5.634 C168.03,6.036 168.295,6.62 168.295,7.386 C168.295,8.339 167.957,9.021 167.28,9.431 C166.604,9.841 165.818,10.046 164.924,10.046 C163.88,10.046 163.063,9.773 162.472,9.226 C161.881,8.683 161.592,7.947 161.604,7.017 L162.699,7.017 L162.699,7.018 Z"></path>
                        <path d="M176.029,1.814 C176.624,2.388 176.954,3.041 177.019,3.771 L175.882,3.771 C175.755,3.216 175.503,2.777 175.125,2.453 C174.747,2.129 174.217,1.967 173.534,1.967 C172.701,1.967 172.029,2.265 171.517,2.862 C171.004,3.458 170.748,4.372 170.748,5.603 C170.748,6.612 170.979,7.43 171.441,8.057 C171.904,8.685 172.593,8.998 173.51,8.998 C174.355,8.998 174.997,8.668 175.439,8.008 C175.672,7.66 175.847,7.203 175.962,6.637 L177.099,6.637 C176.998,7.543 176.666,8.303 176.103,8.916 C175.427,9.654 174.516,10.023 173.369,10.023 C172.381,10.023 171.551,9.72 170.879,9.114 C169.995,8.313 169.553,7.076 169.553,5.403 C169.553,4.132 169.885,3.09 170.549,2.278 C171.267,1.394 172.257,0.953 173.52,0.953 C174.599,0.953 175.435,1.24 176.029,1.814 L176.029,1.814 Z"></path>
                        <path d="M185.697,2.418 C186.267,3.18 186.552,4.154 186.552,5.342 C186.552,6.627 186.226,7.696 185.573,8.547 C184.807,9.547 183.716,10.047 182.298,10.047 C180.974,10.047 179.933,9.609 179.175,8.734 C178.499,7.89 178.161,6.824 178.161,5.535 C178.161,4.371 178.45,3.375 179.028,2.547 C179.77,1.484 180.868,0.953 182.321,0.953 C183.842,0.953 184.967,1.441 185.697,2.418 L185.697,2.418 Z M184.669,7.904 C185.128,7.167 185.357,6.32 185.357,5.362 C185.357,4.349 185.092,3.534 184.563,2.917 C184.034,2.299 183.31,1.99 182.392,1.99 C181.501,1.99 180.775,2.296 180.212,2.908 C179.649,3.519 179.368,4.422 179.368,5.614 C179.368,6.568 179.609,7.373 180.092,8.027 C180.574,8.682 181.357,9.009 182.439,9.009 C183.467,9.01 184.21,8.642 184.669,7.904 L184.669,7.904 Z"></path>
                        <path d="M192.172,7.229 C192.172,7.956 192.065,8.52 191.85,8.922 C191.451,9.656 190.692,10.024 189.574,10.024 C188.928,10.024 188.377,9.849 187.92,9.5 C187.462,9.15 187.233,8.528 187.233,7.634 L187.233,7.019 L188.329,7.019 L188.329,7.634 C188.329,8.103 188.433,8.455 188.643,8.692 C188.852,8.928 189.178,9.046 189.621,9.046 C190.243,9.046 190.65,8.833 190.843,8.407 C190.96,8.145 191.019,7.651 191.019,6.925 L191.019,1.189 L192.173,1.189 L192.173,7.229 L192.172,7.229 Z"></path>
                        <path d="M194.703,7.018 C194.729,7.506 194.841,7.903 195.036,8.207 C195.408,8.777 196.065,9.062 197.006,9.062 C197.428,9.062 197.812,8.999 198.157,8.874 C198.827,8.632 199.162,8.198 199.162,7.573 C199.162,7.104 199.02,6.77 198.736,6.571 C198.449,6.376 197.998,6.206 197.385,6.061 L196.255,5.797 C195.517,5.625 194.995,5.436 194.689,5.229 C194.159,4.87 193.894,4.333 193.894,3.618 C193.894,2.845 194.155,2.21 194.675,1.714 C195.195,1.218 195.933,0.97 196.887,0.97 C197.765,0.97 198.511,1.188 199.125,1.623 C199.739,2.058 200.046,2.755 200.046,3.712 L198.95,3.712 C198.893,3.251 198.774,2.898 198.591,2.651 C198.25,2.202 197.671,1.977 196.855,1.977 C196.196,1.977 195.722,2.122 195.434,2.411 C195.146,2.7 195.001,3.036 195.001,3.419 C195.001,3.841 195.171,4.149 195.512,4.345 C195.736,4.47 196.241,4.626 197.028,4.814 L198.198,5.089 C198.761,5.222 199.197,5.403 199.504,5.634 C200.034,6.036 200.299,6.62 200.299,7.386 C200.299,8.339 199.961,9.021 199.284,9.431 C198.608,9.841 197.822,10.046 196.928,10.046 C195.884,10.046 195.067,9.773 194.476,9.226 C193.885,8.683 193.596,7.947 193.608,7.017 L194.703,7.017 L194.703,7.018 Z"></path>
                        <polygon points="202.057 8.518 203.282 8.518 203.282 9.795 202.057 9.795"></polygon>
                        <path d="M211.367,1.814 C211.962,2.388 212.292,3.041 212.357,3.771 L211.22,3.771 C211.093,3.216 210.841,2.777 210.463,2.453 C210.085,2.129 209.555,1.967 208.872,1.967 C208.039,1.967 207.367,2.265 206.855,2.862 C206.342,3.458 206.086,4.372 206.086,5.603 C206.086,6.612 206.317,7.43 206.779,8.057 C207.242,8.685 207.931,8.998 208.848,8.998 C209.693,8.998 210.335,8.668 210.777,8.008 C211.01,7.66 211.185,7.203 211.3,6.637 L212.437,6.637 C212.336,7.543 212.004,8.303 211.441,8.916 C210.765,9.654 209.854,10.023 208.707,10.023 C207.719,10.023 206.889,9.72 206.217,9.114 C205.333,8.313 204.891,7.076 204.891,5.403 C204.891,4.132 205.223,3.09 205.887,2.278 C206.605,1.394 207.595,0.953 208.858,0.953 C209.937,0.953 210.772,1.24 211.367,1.814 L211.367,1.814 Z"></path>
                        <path d="M221.035,2.418 C221.605,3.18 221.89,4.154 221.89,5.342 C221.89,6.627 221.564,7.696 220.911,8.547 C220.145,9.547 219.054,10.047 217.636,10.047 C216.312,10.047 215.271,9.609 214.513,8.734 C213.837,7.89 213.499,6.824 213.499,5.535 C213.499,4.371 213.788,3.375 214.366,2.547 C215.108,1.484 216.206,0.953 217.659,0.953 C219.18,0.953 220.305,1.441 221.035,2.418 L221.035,2.418 Z M220.007,7.904 C220.466,7.167 220.695,6.32 220.695,5.362 C220.695,4.349 220.43,3.534 219.901,2.917 C219.372,2.299 218.648,1.99 217.73,1.99 C216.839,1.99 216.113,2.296 215.55,2.908 C214.987,3.519 214.706,4.422 214.706,5.614 C214.706,6.568 214.947,7.373 215.43,8.027 C215.912,8.682 216.695,9.009 217.777,9.009 C218.805,9.01 219.548,8.642 220.007,7.904 L220.007,7.904 Z"></path>
                        <path d="M223.25,1.188 L224.921,1.188 L227.396,8.465 L229.853,1.188 L231.512,1.188 L231.512,9.795 L230.399,9.795 L230.399,4.715 C230.399,4.539 230.403,4.248 230.411,3.842 C230.419,3.436 230.423,3 230.423,2.535 L227.966,9.795 L226.81,9.795 L224.33,2.535 L224.33,2.799 C224.33,3.01 224.336,3.331 224.348,3.763 C224.36,4.195 224.366,4.512 224.366,4.715 L224.366,9.795 L223.253,9.795 L223.253,1.188 L223.25,1.188 Z"></path>
                    </g>
                </g>
            </g>
            <g id="Layer_23" transform="translate(160.000000, 119.000000)" fill="#FFFFFF">
                <g id="Group">
                    <g id="Shape">
                        <polygon points="0.33 13.298 2.064 15.032 3.798 13.298 5.532 11.563 7.266 13.298 9 15.032 10.734 13.298 12.468 11.563 14.201 13.298 15.936 15.032 17.67 13.298 18 12.968 18 5.5 13 0.5 0 0.5 0 12.968"></polygon>
                        <polygon points="17.67 16.765 15.936 18.5 14.201 16.765 12.468 15.032 10.734 16.765 9 18.5 7.266 16.765 5.532 15.032 3.798 16.765 2.064 18.5 0.33 16.765 0 16.436 0 27.5 18 27.5 18 16.436"></polygon>
                    </g>
                </g>
            </g>
        </g>
    </g>
</svg>