<?xml version="1.0" encoding="utf-8"?>
<!-- Generator: Adobe Illustrator 18.0.0, SVG Export Plug-In . SVG Version: 6.00 Build 0)  -->
<!DOCTYPE svg PUBLIC "-//W3C//DTD SVG 1.1//EN" "http://www.w3.org/Graphics/SVG/1.1/DTD/svg11.dtd">
<svg class="flag" version="1.1" xmlns="http://www.w3.org/2000/svg" xmlns:xlink="http://www.w3.org/1999/xlink" x="0px"
	 y="0px" viewBox="0 0 256 256" enable-background="new 0 0 256 256" xml:space="preserve">
<g>
	<path fill="none" stroke="#231F20" stroke-width="12" stroke-miterlimit="10" d="M21.2,16.5h211.9c1.1,0,1.3,0.5,0.4,1.2
		l-70.1,49.4c-0.9,0.6-0.9,1.7,0,2.3l70.1,49.4c0.9,0.6,0.7,1.2-0.4,1.2H21.2"/>
</g>
<line fill="none" stroke="#231F20" stroke-width="12" stroke-linecap="round" stroke-miterlimit="10" x1="21.2" y1="219.1" x2="21.2" y2="7.3"/>
<g>
	<path fill="none" d="M33.3,246.4c0,1.1-0.9,2-2,2H11.2c-1.1,0-2-0.9-2-2v-26.3c0-1.1,0.9-2,2-2h20.1c1.1,0,2,0.9,2,2V246.4z"/>
	<path fill="none" stroke="#231F20" stroke-width="12" stroke-linecap="round" stroke-miterlimit="10" d="M33.3,246.4
		c0,1.1-0.9,2-2,2H11.2c-1.1,0-2-0.9-2-2v-26.3c0-1.1,0.9-2,2-2h20.1c1.1,0,2,0.9,2,2V246.4z"/>
</g>
</svg>
