<?xml version="1.0" encoding="utf-8"?>
<!-- Generator: Adobe Illustrator 18.0.0, SVG Export Plug-In . SVG Version: 6.00 Build 0)  -->
<!DOCTYPE svg PUBLIC "-//W3C//DTD SVG 1.1//EN" "http://www.w3.org/Graphics/SVG/1.1/DTD/svg11.dtd">
<svg version="1.1" xmlns="http://www.w3.org/2000/svg" xmlns:xlink="http://www.w3.org/1999/xlink" x="0px" y="0px"
	 viewBox="0 0 1025.2 700" enable-background="new 0 0 1025.2 700" xml:space="preserve">
<rect fill="#77787B" width="1027.4" height="700"/>
<polyline class="unitsvg unitsvg_1" fill="#FFFFFF" points="221.8,233.5 222.3,76.9 51.1,76 50.7,233.1 221.8,233.5 "/>
<polyline class="unitsvg unitsvg_8" fill="#FFFFFF" points="978.8,81 977.1,423.3 845.8,422.5 847.1,80.2 978.8,81 "/>
<polyline class="unitsvg unitsvg_6" fill="#FFFFFF" points="766.9,257.2 795.5,103 666.3,79.3 638.1,233.5 766.9,257.2 "/>
<polyline class="unitsvg unitsvg_7" fill="#FFFFFF" points="636.9,545.5 793.5,545.9 793.9,374.7 637.3,373.9 636.9,545.5 "/>
<polyline class="unitsvg unitsvg_3" fill="#FFFFFF" points="415,547.1 415.4,415.8 258.8,415 258.4,546.3 415,547.1 "/>
<polyline class="unitsvg unitsvg_5" fill="#FFFFFF" points="474.8,545.9 579.9,546.3 580.8,369.3 476.1,368.9 474.8,545.9 "/>
<polyline class="unitsvg unitsvg_4" fill="#FFFFFF" points="476.1,317.4 580.8,317.8 582,78.9 476.9,78.1 476.1,317.4 "/>
<polyline class="unitsvg unitsvg_2" fill="#FFFFFF" points="114.7,284.6 49.9,438.3 170.7,489.8 235.5,335.7 114.7,284.6 "/>
</svg>
